<svg width="18" height="20" viewBox="0 0 18 20" fill="none" xmlns="http://www.w3.org/2000/svg">
<path d="M14 15V12C14 11.7167 14.096 11.479 14.288 11.287C14.4793 11.0957 14.7167 11 15 11C15.2833 11 15.5207 11.0917 15.712 11.275C15.904 11.4583 16 11.6917 16 11.975V16C16 16.2833 15.904 16.5207 15.712 16.712C15.5207 16.904 15.2833 17 15 17H3.85L4.675 17.825C4.875 18.025 4.97934 18.2667 4.988 18.55C4.996 18.8333 4.9 19.075 4.7 19.275C4.5 19.475 4.26267 19.575 3.988 19.575C3.71267 19.575 3.48334 19.4833 3.3 19.3L0.700003 16.7C0.51667 16.5167 0.425003 16.2833 0.425003 16C0.425003 15.7167 0.51667 15.4833 0.700003 15.3L3.275 12.725C3.475 12.525 3.71267 12.425 3.988 12.425C4.26267 12.425 4.5 12.525 4.7 12.725C4.9 12.925 5 13.1627 5 13.438C5 13.7127 4.9 13.95 4.7 14.15L3.85 15H14ZM4 5V8C4 8.28333 3.90434 8.52067 3.713 8.712C3.521 8.904 3.28334 9 3 9C2.71667 9 2.479 8.90833 2.287 8.725C2.09567 8.54167 2 8.30833 2 8.025V4C2 3.71667 2.09567 3.479 2.287 3.287C2.479 3.09567 2.71667 3 3 3H14.15L13.325 2.175C13.125 1.975 13.021 1.73333 13.013 1.45C13.0043 1.16667 13.1 0.924999 13.3 0.724999C13.5 0.524999 13.7377 0.424999 14.013 0.424999C14.2877 0.424999 14.5167 0.516666 14.7 0.699999L17.3 3.3C17.4833 3.48333 17.575 3.71667 17.575 4C17.575 4.28333 17.4833 4.51667 17.3 4.7L14.725 7.275C14.525 7.475 14.2877 7.575 14.013 7.575C13.7377 7.575 13.5 7.475 13.3 7.275C13.1 7.075 13 6.83733 13 6.562C13 6.28733 13.1 6.05 13.3 5.85L14.15 5H4Z" fill="black"/>
</svg>
